<svg width="1570" height="420" viewBox="0 0 1570 420" fill="none" xmlns="http://www.w3.org/2000/svg">
<path d="M1498.75 351.524H71.2536C257.376 175.462 508.578 67.5 785 67.5C1061.42 67.5 1312.62 175.462 1498.75 351.524Z" stroke="url(#paint0_linear_2216_18)" stroke-width="5"/>
<g filter="url(#filter0_f_2216_18)">
<path d="M1498.75 351.524H71.2536C257.376 175.462 508.578 67.5 785 67.5C1061.42 67.5 1312.62 175.462 1498.75 351.524Z" stroke="url(#paint1_linear_2216_18)" stroke-width="5"/>
</g>
<g filter="url(#filter1_f_2216_18)">
<path d="M1498.75 351.524H71.2536C257.376 175.462 508.578 67.5 785 67.5C1061.42 67.5 1312.62 175.462 1498.75 351.524Z" stroke="url(#paint2_linear_2216_18)" stroke-width="5"/>
</g>
<g filter="url(#filter2_f_2216_18)">
<path d="M1498.75 351.524H71.2536C257.376 175.462 508.578 67.5 785 67.5C1061.42 67.5 1312.62 175.462 1498.75 351.524Z" stroke="url(#paint3_linear_2216_18)" stroke-width="5"/>
</g>
<defs>
<filter id="filter0_f_2216_18" x="53" y="53" width="1464" height="313.024" filterUnits="userSpaceOnUse" color-interpolation-filters="sRGB">
<feFlood flood-opacity="0" result="BackgroundImageFix"/>
<feBlend mode="normal" in="SourceGraphic" in2="BackgroundImageFix" result="shape"/>
<feGaussianBlur stdDeviation="6" result="effect1_foregroundBlur_2216_18"/>
</filter>
<filter id="filter1_f_2216_18" x="28" y="28" width="1514" height="363.024" filterUnits="userSpaceOnUse" color-interpolation-filters="sRGB">
<feFlood flood-opacity="0" result="BackgroundImageFix"/>
<feBlend mode="normal" in="SourceGraphic" in2="BackgroundImageFix" result="shape"/>
<feGaussianBlur stdDeviation="18.5" result="effect1_foregroundBlur_2216_18"/>
</filter>
<filter id="filter2_f_2216_18" x="0" y="0" width="1570" height="419.024" filterUnits="userSpaceOnUse" color-interpolation-filters="sRGB">
<feFlood flood-opacity="0" result="BackgroundImageFix"/>
<feBlend mode="normal" in="SourceGraphic" in2="BackgroundImageFix" result="shape"/>
<feGaussianBlur stdDeviation="32.5" result="effect1_foregroundBlur_2216_18"/>
</filter>
<linearGradient id="paint0_linear_2216_18" x1="785" y1="65" x2="785" y2="235.564" gradientUnits="userSpaceOnUse">
<stop stop-color="#43F4FF"/>
<stop offset="1" stop-color="#43F4FF" stop-opacity="0"/>
</linearGradient>
<linearGradient id="paint1_linear_2216_18" x1="785" y1="65" x2="785" y2="235.564" gradientUnits="userSpaceOnUse">
<stop stop-color="#43F4FF"/>
<stop offset="1" stop-color="#43F4FF" stop-opacity="0"/>
</linearGradient>
<linearGradient id="paint2_linear_2216_18" x1="785" y1="65" x2="785" y2="235.564" gradientUnits="userSpaceOnUse">
<stop stop-color="#43F4FF"/>
<stop offset="1" stop-color="#43F4FF" stop-opacity="0"/>
</linearGradient>
<linearGradient id="paint3_linear_2216_18" x1="785" y1="65" x2="785" y2="235.564" gradientUnits="userSpaceOnUse">
<stop stop-color="#43F4FF"/>
<stop offset="1" stop-color="#43F4FF" stop-opacity="0"/>
</linearGradient>
</defs>
</svg>
