<svg width="36" height="36" viewBox="0 0 36 36" fill="none" xmlns="http://www.w3.org/2000/svg">
<path d="M19.1244 36C18.3744 36 17.6243 36 16.8742 36C16.785 35.9795 16.6971 35.9466 16.6067 35.9402C14.9968 35.8265 13.434 35.4855 11.9182 34.9394C3.01623 31.7318 -1.87509 22.2406 0.672812 13.1295C3.83339 1.82831 16.8236 -3.47045 27.0193 2.44759C31.8254 5.23713 34.7136 9.45879 35.7292 14.9355C35.8481 15.5776 35.9112 16.2302 36 16.878C36 17.6045 36 18.331 36 19.0575C35.9799 19.1704 35.9558 19.2824 35.9401 19.3957C35.8425 20.1021 35.7802 20.8154 35.6453 21.5145C34.2439 28.7607 28.3804 34.4851 21.0982 35.7241C20.4438 35.8353 19.7829 35.9088 19.1244 36ZM18.6693 22.9635C19.1747 23.3061 19.6491 23.627 20.1232 23.9487C21.3927 24.8093 22.6578 25.6772 23.9338 26.529C24.6738 27.0229 25.5404 26.7033 25.7292 25.8719C26.8951 20.7382 28.0562 15.6037 29.216 10.4688C29.3398 9.92144 29.0364 9.39734 28.4856 9.29975C28.2032 9.24955 27.8734 9.28891 27.6006 9.3865C20.8516 11.8058 14.1074 14.2379 7.36237 16.6684C6.93812 16.8214 6.74287 17.0531 6.75372 17.384C6.76456 17.7282 6.98432 17.9467 7.4383 18.07C9.00674 18.4973 10.5732 18.933 12.1456 19.3467C12.4309 19.4218 12.5638 19.5644 12.6546 19.837C13.2312 21.568 13.8241 23.2932 14.4139 25.0197C14.6076 25.5868 15.0157 25.8639 15.5284 25.7302C15.7312 25.6772 15.9301 25.5402 16.0876 25.3948C16.9474 24.5997 17.7938 23.7908 18.6693 22.9635Z" fill="#43F4FF"/>
<path d="M14.9836 23.9973C14.9406 23.8953 14.8908 23.7953 14.8554 23.6904C14.399 22.3278 13.9443 20.9643 13.4911 19.6009C13.3368 19.1366 13.3846 19.0101 13.7996 18.7724C17.4423 16.6849 21.0854 14.5973 24.7285 12.5102C24.7791 12.4813 24.8297 12.4282 24.8807 12.4278C25.0069 12.427 25.1334 12.4499 25.26 12.4632C25.2242 12.5817 25.2258 12.7435 25.1467 12.811C24.5324 13.3351 23.9029 13.8411 23.2773 14.3523C20.7937 16.3816 18.3121 18.413 15.8237 20.4366C15.5967 20.6214 15.4898 20.829 15.4609 21.1182C15.3765 21.968 15.268 22.8149 15.1656 23.6627C15.1523 23.7716 15.1178 23.8776 15.0929 23.9848C15.0567 23.9896 15.0201 23.9936 14.9836 23.9973Z" fill="#43F4FF"/>
</svg>
