<svg width="36" height="36" viewBox="0 0 36 36" fill="none" xmlns="http://www.w3.org/2000/svg">
<path d="M13.6128 16.8547V16.8428C12.2349 16.8428 11.123 17.9818 11.123 19.3818C11.123 20.7818 12.2349 21.9209 13.6128 21.9209C14.9907 21.9209 16.1026 20.7818 16.1026 19.3937C16.1026 17.9936 14.9786 16.8547 13.6128 16.8547Z" fill="#43F4FF"/>
<path d="M18 0C8.05889 0 0 8.05889 0 18C0 27.9411 8.05889 36 18 36C27.9411 36 36 27.9411 36 18C36 8.05889 27.9411 0 18 0ZM24.6596 27.4976C24.6596 27.4976 23.7528 26.4888 23.1004 25.5992C26.2428 24.7094 27.4276 22.9298 27.4276 22.9298C24.1603 24.9499 21.1089 25.7271 18 25.6261C14.8911 25.7269 11.8397 24.9499 8.57275 22.9298C8.57275 22.9298 9.75715 24.7094 12.9 25.5992C12.2473 26.4891 11.3409 27.4976 11.3409 27.4976C5.95001 27.3789 3.8592 24.0806 3.73824 24.223C3.73824 16.879 7.30368 10.8991 7.30368 10.8991C10.4944 8.60947 13.4677 8.51429 14.0357 8.50241L14.3983 8.8465C10.3252 9.98546 8.35517 11.7652 8.35517 11.7652C11.851 10.0767 15.1458 9.48276 18 9.44719C20.8542 9.48319 24.1488 10.0767 27.6448 11.7652C27.6448 11.7652 25.6748 9.98546 21.6017 8.8465L21.9643 8.50241C22.5324 8.51429 25.5056 8.60918 28.6963 10.8991C28.6963 10.8991 32.2617 16.8788 32.2617 24.223C32.1408 24.0806 30.05 27.3789 24.6596 27.4976Z" fill="#43F4FF"/>
<path d="M22.3873 16.8428V16.8547C21.0215 16.8547 19.8975 17.9937 19.8975 19.3937C19.8975 20.7818 21.0095 21.9209 22.3873 21.9209C23.7651 21.9209 24.8771 20.7818 24.8771 19.3818C24.8771 17.9817 23.7652 16.8428 22.3873 16.8428Z" fill="#43F4FF"/>
</svg>
