<svg width="1374" height="353" viewBox="0 0 1374 353" fill="none" xmlns="http://www.w3.org/2000/svg">
<path d="M1072.39 76.314C1071.49 77.8679 1070.54 79.3966 1069.69 80.9758C1055.93 106.278 1042.23 131.605 1028.43 156.877C1023.94 165.086 1017.09 168.542 1010.24 165.212C1006.92 163.598 1003.88 160.192 1002.08 156.862C988.129 131.096 974.511 105.153 960.786 79.2705C959.936 77.661 959.034 76.0768 956.928 74.5431C956.928 76.3947 956.928 78.2463 956.928 80.0979C956.928 130.97 956.928 181.836 956.928 232.708C956.928 242.093 954.382 245.655 945.224 247.395C941.204 248.157 936.784 248.132 932.765 247.36C923.951 245.665 921.531 242.315 921.531 233.445C921.521 163.371 921.541 93.3015 921.505 23.2273C921.505 15.2405 921.576 7.3396 930.816 3.94411C940.5 0.387168 949.831 1.50723 957.156 8.7876C961.849 13.4545 965.611 19.3121 968.78 25.1747C983.36 52.1318 997.576 79.2806 1011.94 106.354C1012.77 107.918 1013.72 109.421 1015.1 111.772C1016.47 109.3 1017.44 107.61 1018.36 105.895C1032.89 78.9072 1047.37 51.8997 1061.98 24.9578C1064.38 20.5331 1067.18 16.29 1070.09 12.173C1073.97 6.68875 1079.34 3.6313 1086.1 2.5516C1100.71 0.215628 1108.98 6.84516 1109 21.5472C1109.05 66.8591 1109.02 112.171 1109.02 157.483C1109.02 182.75 1109.03 208.017 1109.01 233.283C1109.01 242.007 1106.42 245.715 1097.78 247.299C1093.27 248.127 1088.32 248.046 1083.84 247.118C1076.03 245.503 1073.62 241.886 1073.61 233.869C1073.59 183.335 1073.6 132.801 1073.6 82.2674C1073.6 80.3502 1073.6 78.4279 1073.6 76.5107C1073.2 76.4451 1072.79 76.3846 1072.38 76.319L1072.39 76.314Z" fill="url(#paint0_linear_2290_34)"/>
<path d="M0 124.986C0 89.1088 0 53.2367 0 17.3596C0 7.82899 3.79189 2.43556 13.1425 2.45069C40.6679 2.4961 68.3958 1.55767 95.6579 4.51927C128.904 8.1317 149.873 32.0111 150.79 65.4464C151.883 105.148 151.989 144.93 150.795 184.622C149.711 220.685 125.821 244.832 89.6486 247.178C64.5482 248.808 39.2959 248.253 14.1095 248.228C4.36903 248.218 0 242.95 0 233.117C0 197.073 0 161.03 0 124.986ZM35.3015 125.092C35.3015 154.072 35.3066 183.052 35.2914 212.028C35.2914 214.787 34.9016 217.381 39.2149 217.315C52.241 217.108 65.2873 217.613 78.2931 217.098C100.974 216.2 114.962 203.128 115.65 180.752C116.561 150.959 116.217 121.126 116.303 91.3137C116.323 83.5691 116.232 75.8044 115.67 68.0901C114.253 48.5698 102.265 35.7144 82.6369 34.0696C68.6843 32.9042 54.585 33.5954 40.5616 33.1615C36.2128 33.0252 35.2003 34.5893 35.2205 38.6659C35.3724 67.4746 35.3015 96.2883 35.3015 125.097V125.092Z" fill="url(#paint1_linear_2290_34)"/>
<path d="M563.104 126.575C563.104 143.088 563.478 159.607 562.952 176.105C562.663 185.131 561.823 194.359 559.535 203.052C554.163 223.465 541.203 237.648 521.008 244.666C499.421 252.168 477.571 252.481 455.772 245.649C431.436 238.021 417.721 220.948 413.317 196.352C411.929 188.607 411.428 180.621 411.378 172.735C411.165 141.736 411.089 110.733 411.413 79.7346C411.509 70.6984 412.274 61.5059 414.147 52.6867C419.341 28.2119 434.585 12.6976 458.759 5.98738C477.596 0.755398 496.5 0.760444 515.323 6.02774C542.61 13.6613 560.365 34.2512 561.919 62.4443C563.094 83.7607 562.152 105.193 562.152 126.575C562.471 126.575 562.79 126.575 563.104 126.575ZM446.421 126.035H446.446C446.446 143.038 446.446 160.036 446.446 177.038C446.446 177.709 446.461 178.385 446.482 179.056C447.206 203.203 458.728 216.644 482.026 218.919C501.856 220.857 522.097 213.359 526.532 188.289C527.261 184.162 527.691 179.929 527.706 175.747C527.802 142.755 527.787 109.764 527.716 76.773C527.706 73.0849 527.286 69.3816 526.82 65.7187C524.699 49.0591 514.553 37.5962 498.222 34.5741C492.025 33.4288 485.423 33.5095 479.105 34.1099C462.996 35.6437 451.98 45.3963 448.38 61.0871C447.15 66.4453 446.588 72.0556 446.502 77.5601C446.264 93.7151 446.416 109.875 446.416 126.035H446.421Z" fill="url(#paint2_linear_2290_34)"/>
<path d="M734.048 126.328C734.048 108.639 733.789 90.9456 734.129 73.2618C734.417 58.1209 737.106 43.4895 745.854 30.5281C757.174 13.7474 773.921 6.32577 793.123 3.37427C808.858 0.95252 824.506 1.80013 839.785 6.53263C866.587 14.8372 884.129 36.0678 884.756 64.3417C885.678 105.582 885.84 146.878 884.736 188.108C883.83 222.053 858.927 245.907 824.076 249.484C809.44 250.988 795.057 250.539 780.872 246.467C754.399 238.864 736.766 218.461 735.248 190.964C734.063 169.481 735.01 147.882 735.01 126.333H734.053L734.048 126.328ZM849.895 126.737C849.895 108.039 850.503 89.321 849.738 70.6534C848.807 47.8436 836.424 35.6642 813.677 33.4645C787.559 30.9418 769.501 46.6377 769.299 72.7321C769.02 108.448 769.02 144.169 769.299 179.884C769.481 203.264 781.915 217.028 805.036 218.955C827.438 220.827 848.543 211.059 849.743 181.801C850.498 163.472 849.885 145.087 849.895 126.727V126.737Z" fill="url(#paint3_linear_2290_34)"/>
<path d="M1223.71 248.177C1215.24 248.904 1207.42 248.318 1200.23 244.171C1193.25 240.145 1191.54 235.872 1193.92 228.132C1215.92 156.771 1237.92 85.4156 1259.95 14.0649C1262.94 4.38798 1273.93 -1.26276 1286.31 0.240737C1297.36 1.58279 1304.31 6.39601 1307.81 18.0708C1328.82 88.1451 1350.55 158.002 1372.04 227.935C1374.54 236.073 1373.2 240.266 1365.56 244.111C1361.3 246.255 1356.34 248.137 1351.67 248.177C1314.97 248.495 1278.25 248.344 1241.53 248.323C1241.21 248.323 1240.88 248.162 1240.03 247.935C1243.67 236.411 1247.19 224.878 1251.11 213.47C1251.5 212.345 1254.29 211.447 1255.98 211.437C1278.65 211.296 1301.32 211.331 1323.99 211.326C1325.82 211.326 1327.66 211.326 1330.41 211.326C1314.7 157.2 1299.19 103.72 1283.67 50.2397C1283.29 50.2296 1282.91 50.2246 1282.53 50.2145C1262.95 116.126 1243.36 182.038 1223.71 248.172V248.177Z" fill="url(#paint4_linear_2290_34)"/>
<path d="M321.587 157.23C312.221 173.007 303.458 187.765 294.7 202.522C287.217 215.125 279.724 227.723 272.262 240.332C269.007 245.826 265.093 250.548 257.844 249.151C249.07 247.461 240.833 244.065 238.216 234.686C237.305 231.427 239.092 226.724 241.016 223.49C259.59 192.199 278.352 161.019 297.352 129.981C300.025 125.611 299.884 122.609 297.282 118.331C279.147 88.5436 261.322 58.5694 243.355 28.6811C239.77 22.7125 236.394 16.5673 241.456 10.0387C246.974 2.92478 254.892 0.619076 263.585 1.4566C268.561 1.9359 271.326 5.82078 273.7 9.86712C293.824 44.155 313.624 78.6296 334.203 112.645C356.261 149.112 379.032 185.146 401.546 221.341C405.069 227.007 408.193 232.794 403.368 239.005C397.88 246.068 390.312 250.488 381.397 248.818C377.519 248.091 373.433 243.757 371.16 240.024C355.628 214.57 340.552 188.844 325.318 163.209C324.311 161.519 323.243 159.864 321.597 157.225L321.587 157.23Z" fill="url(#paint5_linear_2290_34)"/>
<path d="M630.588 34.2509C627.991 34.2509 626.017 34.2509 624.037 34.2509C609.153 34.2509 594.269 34.1046 579.385 34.3215C573.558 34.4073 569.883 31.814 568.404 26.5921C567.331 22.793 566.511 18.6105 566.966 14.7659C568.126 4.94272 571.786 2.12744 581.678 2.12744C626.163 2.12744 670.644 2.12744 715.129 2.12744C723.912 2.12744 726.717 3.91853 728.98 10.9416C731.44 18.5802 729.42 29.3216 724.444 32.4649C722.469 33.7161 719.69 34.155 717.265 34.1803C702.381 34.3316 687.497 34.2559 672.613 34.261C668.161 34.261 665.93 36.4473 665.92 40.8199C665.92 104.487 665.92 168.153 665.92 231.815C665.92 242.864 663.343 246.26 652.368 247.899C648.495 248.48 644.237 247.975 640.405 247.001C632.917 245.094 630.598 241.603 630.593 233.853C630.583 199.495 630.593 165.136 630.593 130.778V34.2509H630.588Z" fill="url(#paint6_linear_2290_34)"/>
<path d="M213.971 352.913C209.162 338.074 204.205 323.282 199.578 308.388C193.392 288.479 187.291 268.54 181.53 248.51C180.158 243.737 179.799 238.541 179.794 233.536C179.687 161.433 179.718 89.3308 179.723 17.2284C179.723 7.66752 182.092 4.70088 191.65 2.9098C194.602 2.35482 197.735 2.02183 200.692 2.375C212.392 3.76246 215.095 6.94604 215.09 18.5856C215.019 128.76 214.943 238.939 214.872 349.114C214.872 350.289 214.872 351.47 214.872 352.645C214.574 352.736 214.275 352.827 213.971 352.913Z" fill="url(#paint7_linear_2290_34)"/>
<path d="M1138.16 352.665C1138.16 308.544 1138.16 264.418 1138.16 220.297C1138.17 152.594 1138.19 84.8856 1138.22 17.1826C1138.22 7.64701 1140.56 4.65514 1150.19 2.92965C1153.61 2.31916 1157.3 2.15267 1160.71 2.7127C1171.53 4.48865 1173.56 7.12229 1173.55 18.116C1173.47 86.9996 1173.76 155.888 1172.96 224.762C1172.8 238.666 1169.64 252.849 1165.83 266.335C1157.89 294.473 1148.59 322.237 1139.84 350.148C1139.55 351.071 1139.15 351.959 1138.8 352.867C1138.58 352.801 1138.38 352.736 1138.16 352.67V352.665Z" fill="url(#paint8_linear_2290_34)"/>
<path d="M348.829 111.777C342.582 100.976 336.628 90.895 330.973 80.6581C330.29 79.422 330.644 77.0154 331.419 75.6683C343.959 53.9735 356.58 32.319 369.327 10.7402C376.698 -1.73174 395.607 -1.36848 403.105 11.2801C406.421 16.8804 404.406 22.0064 401.399 26.9054C391.547 42.9646 381.619 58.9834 371.727 75.0225C365.191 85.6176 358.66 96.2178 352.114 106.808C351.259 108.19 350.327 109.522 348.829 111.777Z" fill="url(#paint9_linear_2290_34)"/>
<defs>
<linearGradient id="paint0_linear_2290_34" x1="1015.27" y1="1.99023" x2="1015.27" y2="247.953" gradientUnits="userSpaceOnUse">
<stop stop-color="#BA000B"/>
<stop offset="1" stop-color="#0B0B0B"/>
</linearGradient>
<linearGradient id="paint1_linear_2290_34" x1="75.8254" y1="2.34424" x2="75.8254" y2="248.339" gradientUnits="userSpaceOnUse">
<stop stop-color="#BA000B"/>
<stop offset="1" stop-color="#0B0B0B"/>
</linearGradient>
<linearGradient id="paint2_linear_2290_34" x1="487.213" y1="2.07031" x2="487.213" y2="250.544" gradientUnits="userSpaceOnUse">
<stop stop-color="#BA000B"/>
<stop offset="1" stop-color="#0B0B0B"/>
</linearGradient>
<linearGradient id="paint3_linear_2290_34" x1="809.73" y1="2.05859" x2="809.73" y2="250.275" gradientUnits="userSpaceOnUse">
<stop stop-color="#BA000B"/>
<stop offset="1" stop-color="#0B0B0B"/>
</linearGradient>
<linearGradient id="paint4_linear_2290_34" x1="1283.05" y1="0" x2="1283.05" y2="248.443" gradientUnits="userSpaceOnUse">
<stop stop-color="#BA000B"/>
<stop offset="1" stop-color="#0B0B0B"/>
</linearGradient>
<linearGradient id="paint5_linear_2290_34" x1="321.906" y1="1.29297" x2="321.906" y2="249.399" gradientUnits="userSpaceOnUse">
<stop stop-color="#BA000B"/>
<stop offset="1" stop-color="#0B0B0B"/>
</linearGradient>
<linearGradient id="paint6_linear_2290_34" x1="648.433" y1="2.12744" x2="648.433" y2="248.145" gradientUnits="userSpaceOnUse">
<stop stop-color="#BA000B"/>
<stop offset="1" stop-color="#0B0B0B"/>
</linearGradient>
<linearGradient id="paint7_linear_2290_34" x1="197.402" y1="2.22949" x2="197.402" y2="352.913" gradientUnits="userSpaceOnUse">
<stop stop-color="#BA000B"/>
<stop offset="1" stop-color="#0B0B0B"/>
</linearGradient>
<linearGradient id="paint8_linear_2290_34" x1="1155.85" y1="2.37061" x2="1155.85" y2="352.867" gradientUnits="userSpaceOnUse">
<stop stop-color="#BA000B"/>
<stop offset="1" stop-color="#0B0B0B"/>
</linearGradient>
<linearGradient id="paint9_linear_2290_34" x1="367.713" y1="1.58691" x2="367.713" y2="111.777" gradientUnits="userSpaceOnUse">
<stop stop-color="#BA000B"/>
<stop offset="1" stop-color="#0B0B0B"/>
</linearGradient>
</defs>
</svg>
