<svg width="191" height="40" viewBox="0 0 191 40" fill="none" xmlns="http://www.w3.org/2000/svg">
<path d="M76.1629 0.0179356L60.1245 17.4932L45.3237 3.35794C43.0877 1.20368 40.1044 0 36.9995 0H0.763672V9.81675H29.4347C35.0764 9.81675 39.8254 14.2588 39.9589 19.9005C40.0964 25.7117 35.4093 30.4825 29.628 30.4825H0.763672V39.4982H29.628C40.3854 39.4982 49.1997 31.8257 49.7498 21.2039L56.9419 28.0134H63.3051L76.2446 15.7654V39.4762H85.607V0.0179356H76.1629Z" fill="#43F4FF"/>
<path d="M10.3712 15.2051H0.763672V24.8126H10.3712V15.2051Z" fill="#43F4FF"/>
<path d="M94.4443 18.5685V0.0410156H105.606C109.686 0.0410156 112.707 0.764418 114.678 2.21321C116.641 3.66002 117.625 6.06139 117.625 9.41934C117.625 12.582 116.655 14.8977 114.72 16.3664C112.777 17.8351 109.741 18.5665 105.606 18.5665H94.4443V18.5685ZM99.1056 16.1532H104.883C106.678 16.1532 108.175 15.9758 109.373 15.6211C110.57 15.2643 111.467 14.6007 112.067 13.6222C112.665 12.6438 112.966 11.2428 112.966 9.42133C112.966 7.59987 112.695 6.18894 112.151 5.19052C111.609 4.1941 110.748 3.49262 109.564 3.09007C108.38 2.68751 106.818 2.48623 104.883 2.48623H99.1056V16.1512V16.1532Z" fill="white"/>
<path d="M122.201 18.568V0.0405273H141.408V2.48575H126.866V8.0956H139.826V10.5109H126.866V16.1507H141.408V18.566H122.201V18.568Z" fill="white"/>
<path d="M145.726 18.568V0.0405273H164.933V2.48575H150.391V8.0956H163.35V10.5109H150.391V16.1507H164.933V18.566H145.726V18.568Z" fill="white"/>
<path d="M169.249 18.568V0.0405273H181.525C183.633 0.0405273 185.371 0.307568 186.742 0.845636C188.109 1.38171 189.124 2.11508 189.777 3.04573C190.431 3.9744 190.762 5.03658 190.762 6.22432C190.762 8.06371 189.913 9.5424 188.217 10.6544C186.519 11.7664 184.231 12.3204 181.354 12.3204H173.912V18.564H169.249V18.568ZM173.912 9.85129H180.499C182.35 9.85129 183.749 9.52447 184.69 8.87281C185.63 8.22115 186.103 7.33633 186.103 6.22631C186.103 5.03658 185.65 4.1139 184.751 3.46423C183.853 2.81257 182.509 2.48575 180.714 2.48575H173.912V9.85129Z" fill="white"/>
<path d="M94.4425 39.4735V25.8564H97.9618L104.375 34.6748L110.758 25.8564H114.277V39.4735H110.881V29.597L105.409 37.126H103.337L97.8343 29.597V39.4735H94.4385H94.4425Z" fill="white"/>
<path d="M115.874 39.474L123.61 25.8569H126.57L134.242 39.474H131.155L129.144 35.9626H121.004L118.991 39.474H115.874ZM121.536 34.187H128.578L125.059 27.9494L121.536 34.187Z" fill="white"/>
<path d="M137.068 39.4746V27.653H130.593V25.8555H146.94V27.653H140.493V39.4746H137.068Z" fill="white"/>
<path d="M148.252 39.474V25.8569H157.559C159.82 25.8569 161.472 26.2475 162.511 27.0307C163.547 27.8119 164.067 28.8721 164.067 30.2133C164.067 31.1718 163.708 31.9889 162.997 32.6665C162.284 33.344 161.257 33.8163 159.916 34.0854C160.293 34.2687 160.586 34.464 160.797 34.6773C161.006 34.8865 161.217 35.1695 161.427 35.5222L163.97 39.476H160.45L157.969 35.6697C157.738 35.303 157.461 35.0419 157.134 34.8865C156.809 34.7311 156.259 34.6553 155.484 34.6553H151.68V39.476H148.252V39.474ZM151.68 32.792H156.648C157.883 32.792 158.858 32.5888 159.569 32.1802C160.281 31.7697 160.639 31.1141 160.639 30.2133C160.639 28.5074 159.414 27.6545 156.961 27.6545H151.68V32.792Z" fill="white"/>
<path d="M166.682 39.474V25.8569H170.109V39.474H166.682Z" fill="white"/>
<path d="M172.214 39.474L179.444 32.6844L172.373 25.8569H176.333L181.491 30.9088L186.644 25.8569H190.638L183.533 32.6844L190.763 39.474H186.742L181.493 34.4839L176.239 39.474H172.216H172.214Z" fill="white"/>
</svg>
