<svg width="350" height="91" viewBox="0 0 350 91" fill="none" xmlns="http://www.w3.org/2000/svg">
<path d="M272.715 20.325C272.486 20.7199 272.246 21.1083 272.028 21.5096C268.533 27.9388 265.051 34.3744 261.544 40.7958C260.405 42.8816 258.664 43.7598 256.924 42.9137C256.079 42.5035 255.308 41.6381 254.85 40.792C251.305 34.2449 247.844 27.6529 244.357 21.0763C244.141 20.6673 243.912 20.2648 243.377 19.8751C243.377 20.3455 243.377 20.816 243.377 21.2865C243.377 34.2128 243.377 47.1378 243.377 60.0642C243.377 62.4487 242.73 63.3537 240.403 63.796C239.381 63.9896 238.258 63.9832 237.237 63.7871C234.997 63.3563 234.382 62.5051 234.382 60.2513C234.38 42.4458 234.385 24.6415 234.376 6.83593C234.376 4.80654 234.394 2.79895 236.742 1.93617C239.202 1.03237 241.573 1.31697 243.435 3.16688C244.627 4.35272 245.583 5.84111 246.388 7.33078C250.093 14.1805 253.705 21.0788 257.355 27.958C257.566 28.3554 257.807 28.7374 258.157 29.3349C258.507 28.7067 258.753 28.2772 258.987 27.8413C262.679 20.984 266.358 14.1215 270.071 7.27566C270.68 6.15135 271.392 5.0732 272.131 4.02709C273.115 2.63357 274.48 1.85668 276.198 1.58234C279.911 0.988777 282.012 2.67331 282.017 6.40903C282.031 17.9226 282.022 29.4361 282.022 40.9497C282.022 47.3699 282.025 53.7901 282.021 60.2103C282.021 62.4269 281.362 63.3691 279.165 63.7717C278.02 63.9819 276.764 63.9614 275.624 63.7255C273.64 63.3153 273.027 62.3961 273.025 60.359C273.02 47.5186 273.023 34.6782 273.023 21.8378C273.023 21.3506 273.023 20.8622 273.023 20.375C272.92 20.3584 272.817 20.343 272.713 20.3263L272.715 20.325Z" fill="#BA000B"/>
<path d="M0.225586 32.6925C0.225586 23.5763 0.225586 14.4613 0.225586 5.34511C0.225586 2.92344 1.18909 1.55299 3.56504 1.55683C10.5591 1.56837 17.6047 1.32992 24.5318 2.08245C32.9795 3.00036 38.3077 9.06801 38.5406 17.5638C38.8184 27.6517 38.8454 37.7602 38.5419 47.8456C38.2666 57.0093 32.1961 63.1449 23.0049 63.741C16.627 64.1551 10.2105 64.0141 3.81074 64.0077C1.33574 64.0051 0.225586 62.6667 0.225586 60.1681C0.225586 51.0096 0.225586 41.8511 0.225586 32.6925ZM9.19555 32.7194C9.19555 40.0832 9.19684 47.4469 9.19298 54.8094C9.19298 55.5107 9.09393 56.1696 10.1899 56.1529C13.4998 56.1004 16.8148 56.2286 20.1195 56.0978C25.8825 55.8696 29.4368 52.548 29.6118 46.8624C29.8433 39.2922 29.7558 31.7118 29.7777 24.1365C29.7829 22.1687 29.7597 20.1957 29.6169 18.2355C29.2567 13.2755 26.2106 10.009 21.2233 9.59107C17.678 9.29493 14.0954 9.47056 10.5321 9.36031C9.4271 9.32569 9.16982 9.72311 9.17497 10.759C9.21356 18.0791 9.19555 25.4006 9.19555 32.7207V32.7194Z" fill="#BA000B"/>
<path d="M143.308 33.0964C143.308 37.2923 143.403 41.4895 143.269 45.6816C143.196 47.9751 142.982 50.3199 142.401 52.5288C141.036 57.7157 137.743 61.3194 132.611 63.1026C127.126 65.0089 121.574 65.0884 116.035 63.3526C109.851 61.4142 106.367 57.076 105.247 50.8263C104.895 48.8584 104.768 46.829 104.755 44.8253C104.701 36.9487 104.681 29.0709 104.764 21.1944C104.788 18.8983 104.982 16.5625 105.458 14.3216C106.778 8.10268 110.651 4.16056 116.794 2.45551C121.581 1.12609 126.384 1.12737 131.167 2.46577C138.1 4.40542 142.612 9.63722 143.007 16.801C143.305 22.2174 143.066 27.6633 143.066 33.0964C143.147 33.0964 143.228 33.0964 143.308 33.0964ZM113.659 32.9592H113.665C113.665 37.2795 113.665 41.5985 113.665 45.9188C113.665 46.0893 113.669 46.2611 113.675 46.4316C113.858 52.5672 116.786 55.9824 122.706 56.5606C127.745 57.0529 132.888 55.1479 134.015 48.7777C134.2 47.729 134.309 46.6534 134.313 45.5906C134.338 37.2077 134.334 28.8248 134.316 20.4418C134.313 19.5047 134.206 18.5637 134.088 17.633C133.549 13.3999 130.971 10.4872 126.821 9.71927C125.247 9.42826 123.569 9.44877 121.964 9.60133C117.871 9.99105 115.072 12.4691 114.157 16.4561C113.844 17.8176 113.702 19.2432 113.68 20.6418C113.619 24.7468 113.658 28.853 113.658 32.9592H113.659Z" fill="#BA000B"/>
<path d="M186.745 33.0334C186.745 28.5388 186.679 24.0428 186.765 19.5495C186.839 15.7022 187.522 11.9844 189.744 8.69101C192.621 4.42711 196.876 2.5413 201.755 1.79134C205.754 1.17598 209.73 1.39136 213.612 2.59386C220.422 4.70402 224.88 10.0986 225.039 17.2829C225.273 27.7619 225.314 38.255 225.034 48.7314C224.804 57.3566 218.476 63.4179 209.62 64.3268C205.901 64.7088 202.247 64.5947 198.642 63.5602C191.916 61.6282 187.435 56.4438 187.049 49.457C186.748 43.9983 186.989 38.5101 186.989 33.0347H186.746L186.745 33.0334ZM216.181 33.1373C216.181 28.3862 216.335 23.63 216.141 18.8867C215.904 13.0908 212.758 9.99607 206.978 9.43713C200.342 8.79613 195.753 12.7844 195.702 19.4149C195.631 28.4901 195.631 37.5665 195.702 46.6418C195.748 52.5825 198.907 56.0798 204.782 56.5695C210.475 57.0451 215.837 54.5632 216.142 47.1289C216.334 42.4714 216.178 37.7999 216.181 33.1347V33.1373Z" fill="#BA000B"/>
<path d="M311.164 63.9948C309.013 64.1794 307.025 64.0307 305.199 62.9769C303.425 61.9539 302.991 60.868 303.596 58.9015C309.185 40.769 314.775 22.6378 320.374 4.5079C321.132 2.04905 323.927 0.613219 327.07 0.995252C329.88 1.33626 331.645 2.55928 332.535 5.5258C337.874 23.3314 343.395 41.0818 348.854 58.8515C349.49 60.9193 349.15 61.9846 347.209 62.9615C346.127 63.5064 344.865 63.9845 343.68 63.9948C334.353 64.0756 325.023 64.0371 315.694 64.032C315.611 64.032 315.529 63.991 315.312 63.9333C316.236 61.0052 317.132 58.0746 318.127 55.176C318.227 54.8901 318.935 54.6619 319.364 54.6593C325.124 54.6235 330.885 54.6324 336.645 54.6311C337.112 54.6311 337.578 54.6311 338.276 54.6311C334.286 40.878 330.343 27.2889 326.4 13.6998C326.304 13.6972 326.209 13.6959 326.112 13.6934C321.135 30.4413 316.158 47.1892 311.164 63.9935V63.9948Z" fill="#BA000B"/>
<path d="M81.9398 40.8855C79.56 44.8943 77.3332 48.6441 75.1078 52.3939C73.2065 55.5963 71.3027 58.7974 69.4065 62.0011C68.5794 63.3972 67.585 64.5972 65.7429 64.242C63.5136 63.8126 61.4207 62.9498 60.7556 60.5666C60.524 59.7384 60.9781 58.5436 61.467 57.7218C66.1867 49.7709 70.9541 41.8482 75.7819 33.9614C76.4611 32.8512 76.4251 32.0885 75.7639 31.0013C71.156 23.4325 66.6267 15.8162 62.0613 8.22165C61.1505 6.70505 60.2925 5.14359 61.5789 3.48469C62.981 1.67709 64.9929 1.09122 67.2017 1.30403C68.4662 1.42582 69.1686 2.41295 69.7719 3.44111C74.8853 12.1535 79.9163 20.9133 85.1455 29.5565C90.7502 38.8227 96.5364 47.9787 102.257 57.1757C103.152 58.6154 103.946 60.0858 102.72 61.664C101.326 63.4587 99.4025 64.5818 97.1371 64.1574C96.1518 63.9728 95.1137 62.8716 94.5361 61.9229C90.5894 55.4553 86.7586 48.9184 82.8879 42.4046C82.6319 41.9752 82.3604 41.5547 81.9424 40.8842L81.9398 40.8855Z" fill="#BA000B"/>
<path d="M160.456 9.63704C159.796 9.63704 159.294 9.63704 158.791 9.63704C155.009 9.63704 151.227 9.59986 147.445 9.65499C145.964 9.67678 145.03 9.01784 144.655 7.69098C144.382 6.72564 144.174 5.66287 144.29 4.68599C144.584 2.18996 145.514 1.47461 148.028 1.47461C159.331 1.47461 170.633 1.47461 181.937 1.47461C184.169 1.47461 184.881 1.92972 185.456 3.71425C186.082 5.65518 185.568 8.38453 184.304 9.18321C183.802 9.50115 183.096 9.61268 182.48 9.61909C178.698 9.65755 174.916 9.63832 171.134 9.6396C170.003 9.6396 169.436 10.1951 169.433 11.3062C169.433 27.4836 169.433 43.6611 169.433 59.8372C169.433 62.6448 168.778 63.5075 165.99 63.9242C165.005 64.0716 163.924 63.9434 162.95 63.696C161.047 63.2114 160.458 62.3243 160.457 60.3551C160.454 51.6248 160.457 42.8944 160.457 34.1641V9.63704H160.456Z" fill="#BA000B"/>
<path d="M54.595 90.6075C53.373 86.8372 52.1136 83.0784 50.9378 79.294C49.3659 74.2353 47.8158 69.1688 46.3519 64.0793C46.0033 62.8666 45.9119 61.5461 45.9106 60.2744C45.8836 41.9535 45.8913 23.6326 45.8926 5.31164C45.8926 2.88227 46.4947 2.12846 48.9233 1.67335C49.6733 1.53233 50.4696 1.44772 51.2208 1.53746C54.1937 1.89001 54.8806 2.69894 54.8793 5.65649C54.8613 33.6513 54.842 61.6474 54.824 89.6422C54.824 89.9409 54.824 90.2409 54.824 90.5396C54.7481 90.5627 54.6722 90.5857 54.595 90.6075Z" fill="#BA000B"/>
<path d="M289.428 90.5447C289.428 79.3337 289.427 68.1214 289.428 56.9104C289.431 39.7074 289.436 22.5031 289.441 5.30005C289.441 2.87709 290.037 2.11687 292.485 1.67843C293.353 1.52331 294.29 1.481 295.157 1.6233C297.907 2.07456 298.421 2.74376 298.419 5.53722C298.398 23.0402 298.474 40.5445 298.271 58.045C298.23 61.5781 297.426 65.1818 296.458 68.6086C294.44 75.7582 292.078 82.813 289.854 89.905C289.781 90.1396 289.678 90.3652 289.589 90.596C289.535 90.5793 289.482 90.5626 289.428 90.546V90.5447Z" fill="#BA000B"/>
<path d="M88.8619 29.3359C87.2745 26.5911 85.7617 24.0297 84.3248 21.4286C84.1512 21.1145 84.2412 20.503 84.438 20.1607C87.6244 14.6481 90.8314 9.14581 94.0705 3.66274C95.9435 0.493657 100.748 0.585961 102.653 3.79991C103.496 5.22292 102.984 6.52542 102.22 7.77023C99.7164 11.8508 97.1938 15.9211 94.6802 19.9966C93.0195 22.6887 91.3601 25.3822 89.6968 28.0731C89.4794 28.4244 89.2427 28.7628 88.8619 29.3359Z" fill="#BA000B"/>
</svg>
