<svg width="204" height="48" viewBox="0 0 204 48" fill="none" xmlns="http://www.w3.org/2000/svg">
<mask id="path-1-inside-1_2074_121" fill="white">
<path fill-rule="evenodd" clip-rule="evenodd" d="M0 20.3463V48H183.216L204 27.3246V0H20.4531L0 20.3463Z"/>
</mask>
<path d="M0 20.3463L-1.41051 18.9284L-2 19.5148V20.3463H0ZM0 48H-2V50H0V48ZM183.216 48V50H184.041L184.627 49.4179L183.216 48ZM204 27.3246L205.411 28.7426L206 28.1561V27.3246H204ZM204 0H206V-2H204V0ZM20.4531 0V-2H19.6277L19.0426 -1.41791L20.4531 0ZM-2 20.3463V48H2V20.3463H-2ZM0 50H183.216V46H0V50ZM184.627 49.4179L205.411 28.7426L202.589 25.9067L181.806 46.5821L184.627 49.4179ZM206 27.3246V0H202V27.3246H206ZM204 -2H20.4531V2H204V-2ZM19.0426 -1.41791L-1.41051 18.9284L1.41051 21.7642L21.8636 1.41791L19.0426 -1.41791Z" fill="white" mask="url(#path-1-inside-1_2074_121)"/>
</svg>
