<svg width="72" height="73" viewBox="0 0 72 73" fill="none" xmlns="http://www.w3.org/2000/svg">
<path d="M27.2246 33.7655V33.7417C24.4689 33.7417 22.2451 36.0198 22.2451 38.8197C22.2451 41.6197 24.4689 43.8979 27.2246 43.8979C29.9804 43.8979 32.2043 41.6198 32.2043 38.8435C32.2043 36.0433 29.9562 33.7655 27.2246 33.7655Z" fill="white"/>
<path d="M36 0.0556641C16.1178 0.0556641 0 16.1734 0 36.0557C0 55.9379 16.1178 72.0557 36 72.0557C55.8822 72.0557 72 55.9379 72 36.0557C72 16.1734 55.8822 0.0556641 36 0.0556641ZM49.3191 55.0508C49.3191 55.0508 47.5056 53.0333 46.2008 51.2541C52.4857 49.4744 54.8552 45.9152 54.8552 45.9152C48.3206 49.9554 42.2178 51.5099 36 51.3079C29.7822 51.5095 23.6794 49.9554 17.1455 45.9152C17.1455 45.9152 19.5143 49.4744 25.7999 51.2541C24.4947 53.0338 22.6817 55.0508 22.6817 55.0508C11.9 54.8135 7.7184 48.2169 7.47648 48.5016C7.47648 33.8136 14.6074 21.8538 14.6074 21.8538C20.9889 17.2746 26.9353 17.0842 28.0714 17.0605L28.7967 17.7487C20.6505 20.0266 16.7103 23.586 16.7103 23.586C23.702 20.209 30.2917 19.0212 36 18.95C41.7084 19.022 48.2976 20.209 55.2897 23.586C55.2897 23.586 51.3495 20.0266 43.2035 17.7487L43.9286 17.0605C45.0648 17.0842 51.0111 17.274 57.3926 21.8538C57.3926 21.8538 64.5234 33.8133 64.5234 48.5016C64.2816 48.2169 60.1 54.8135 49.3191 55.0508Z" fill="white"/>
<path d="M44.7746 33.7417V33.7655C42.043 33.7655 39.7949 36.0435 39.7949 38.8435C39.7949 41.6198 42.019 43.8979 44.7746 43.8979C47.5302 43.8979 49.7541 41.6198 49.7541 38.8197C49.7541 36.0196 47.5303 33.7417 44.7746 33.7417Z" fill="white"/>
</svg>
