<svg width="72" height="73" viewBox="0 0 72 73" fill="none" xmlns="http://www.w3.org/2000/svg">
<path d="M38.2489 72.0557C36.7487 72.0557 35.2486 72.0557 33.7485 72.0557C33.5701 72.0147 33.3941 71.9488 33.2133 71.936C29.9937 71.7087 26.8681 71.0268 23.8365 69.9344C6.03245 63.5192 -3.75019 44.5369 1.34562 26.3146C7.66678 3.71229 33.6472 -6.88524 54.0385 4.95084C63.6508 10.5299 69.4272 18.9732 71.4584 29.9266C71.6963 31.2109 71.8224 32.5161 72 33.8117C72 35.2647 72 36.7177 72 38.1707C71.9598 38.3964 71.9116 38.6205 71.8803 38.847C71.685 40.2599 71.5605 41.6864 71.2905 43.0848C68.4879 57.577 56.7608 69.026 42.1965 71.5039C40.8876 71.7263 39.5658 71.8733 38.2489 72.0557ZM37.3385 45.9827C38.3493 46.6679 39.2983 47.3096 40.2464 47.953C42.7855 49.6743 45.3157 51.41 47.8676 53.1136C49.3477 54.1016 51.0808 53.4622 51.4585 51.7996C53.7902 41.5322 56.1123 31.2631 58.4321 20.9933C58.6795 19.8985 58.0729 18.8504 56.9713 18.6552C56.4064 18.5548 55.7468 18.6335 55.2012 18.8287C41.7031 23.6672 28.2147 28.5314 14.7247 33.3924C13.8762 33.6985 13.4857 34.1619 13.5074 34.8238C13.5291 35.5121 13.9686 35.949 14.8766 36.1956C18.0135 37.0502 21.1463 37.9217 24.2912 38.749C24.8617 38.8992 25.1277 39.1844 25.3093 39.7297C26.4623 43.1916 27.6483 46.6422 28.8278 50.0952C29.2151 51.2293 30.0315 51.7835 31.0567 51.516C31.4625 51.41 31.8602 51.1361 32.1752 50.8453C33.8947 49.255 35.5877 47.6373 37.3385 45.9827Z" fill="white"/>
<path d="M29.9672 48.0502C29.8812 47.8462 29.7816 47.6462 29.7109 47.4365C28.7981 44.7112 27.8885 41.9844 26.9822 39.2575C26.6736 38.3289 26.7692 38.0759 27.5993 37.6004C34.8846 33.4254 42.1708 29.2503 49.4569 25.076C49.5582 25.0182 49.6594 24.9122 49.7615 24.9114C50.0138 24.9098 50.2669 24.9555 50.52 24.982C50.4485 25.219 50.4517 25.5427 50.2934 25.6776C49.0648 26.7258 47.8057 27.7379 46.5547 28.7603C41.5874 32.8189 36.6242 36.8816 31.6473 40.9289C31.1933 41.2984 30.9796 41.7137 30.9217 42.292C30.753 43.9916 30.5361 45.6855 30.3312 47.3811C30.3047 47.5988 30.2355 47.8108 30.1857 48.0253C30.1134 48.0349 30.0403 48.043 29.9672 48.0502Z" fill="white"/>
</svg>
