<svg width="72" height="73" viewBox="0 0 72 73" fill="none" xmlns="http://www.w3.org/2000/svg">
<path d="M36 0.0556641C16.1208 0.0556641 0 16.1765 0 36.0557C0 55.9349 16.1208 72.0557 36 72.0557C55.8792 72.0557 72 55.9349 72 36.0557C72 16.1765 55.8792 0.0556641 36 0.0556641ZM52.4372 28.1246C52.4531 28.4789 52.4608 28.8349 52.4608 29.1925C52.4608 40.1113 44.1497 52.7021 28.9506 52.7027C24.2842 52.7027 19.9418 51.3349 16.285 48.991C16.9316 49.0673 17.5897 49.1052 18.256 49.1052C22.1276 49.1052 25.6904 47.7847 28.5189 45.5682C24.9016 45.5012 21.8518 43.1122 20.7993 39.8289C21.303 39.9256 21.821 39.9783 22.3522 39.9783C23.1064 39.9783 23.837 39.8767 24.5314 39.6872C20.7504 38.9302 17.9022 35.5887 17.9022 31.5875C17.9022 31.5502 17.9022 31.5167 17.9033 31.4821C19.0168 32.1011 20.2901 32.4736 21.6458 32.5153C19.4271 31.0349 17.9687 28.5042 17.9687 25.6373C17.9687 24.1234 18.3779 22.7051 19.0876 21.4839C23.1625 26.4838 29.2522 29.772 36.1198 30.1176C35.978 29.5122 35.905 28.8816 35.905 28.2334C35.905 23.6719 39.6057 19.9711 44.1689 19.9711C46.5458 19.9711 48.6925 20.9758 50.2004 22.582C52.0829 22.2107 53.8506 21.5229 55.4474 20.5765C54.8295 22.5051 53.5199 24.1234 51.8137 25.1468C53.4853 24.9468 55.0783 24.5035 56.5587 23.8455C55.4529 25.5027 54.0505 26.9584 52.4372 28.1246Z" fill="white"/>
</svg>
