<svg width="72" height="73" viewBox="0 0 72 73" fill="none" xmlns="http://www.w3.org/2000/svg">
<path d="M36 0.0556641C16.119 0.0556641 0 16.1724 0 36.0557C0 55.9367 16.119 72.0557 36 72.0557C55.881 72.0557 72 55.9367 72 36.0557C72 16.1724 55.881 0.0556641 36 0.0556641ZM26.649 50.1789H19.305V28.0839H26.649V50.1789ZM22.977 25.0667H22.9298C20.4638 25.0667 18.8708 23.3679 18.8708 21.2484C18.8708 19.0817 20.5133 17.4324 23.0243 17.4324C25.5352 17.4324 27.0833 19.0817 27.1305 21.2484C27.1305 23.3702 25.5352 25.0667 22.977 25.0667ZM53.1293 50.1789H45.7853V38.3574C45.7853 35.3874 44.7232 33.3624 42.0638 33.3624C40.0365 33.3624 38.8283 34.7282 38.2972 36.0489C38.1037 36.5214 38.0542 37.1807 38.0542 37.8399V50.1789H30.7125C30.7125 50.1789 30.8092 30.1584 30.7125 28.0839H38.0565V31.2137C39.0308 29.7084 40.7768 27.5642 44.676 27.5642C49.5068 27.5642 53.1293 30.7232 53.1293 37.5092V50.1789Z" fill="white"/>
</svg>
