<svg width="72" height="73" viewBox="0 0 72 73" fill="none" xmlns="http://www.w3.org/2000/svg">
<path fill-rule="evenodd" clip-rule="evenodd" d="M48.933 43.4271C48.646 43.426 48.3687 43.5307 48.154 43.721C47.9402 43.8869 47.8333 44.5135 47.8333 45.6009V46.1442L47.902 46.2117H49.8953L49.9639 46.1442V44.8084C49.9639 43.8868 49.6203 43.4264 48.933 43.4271ZM40.2499 43.3814C40.0409 43.3841 39.8353 43.4345 39.6488 43.5286C39.4622 43.6227 39.2995 43.7582 39.1731 43.9246V51.7832C39.5244 52.1606 39.8834 52.3492 40.2499 52.3492H40.4561C40.9297 52.3492 41.1664 51.9867 41.1663 51.2618V44.5821C41.1052 43.7816 40.7997 43.3814 40.2499 43.3814ZM27.672 41.5471H30.0317V51.2399C30.0317 51.7981 30.2074 52.0771 30.5586 52.0771H30.7191C31.0857 52.0771 31.5439 51.7603 32.0937 51.1267V41.547H34.4764V54.1835H32.0937V52.8249H32.0709C31.1238 53.8508 30.2074 54.3639 29.3216 54.3643H29.2757C29.0439 54.3725 28.8137 54.323 28.6057 54.2202C28.3978 54.1174 28.2186 53.9645 28.0844 53.7754C27.8094 53.4893 27.6719 52.6515 27.672 51.2618V41.5471ZM48.8643 41.2531H49.1163C51.3158 41.2531 52.4155 42.574 52.4154 45.2157V48.1374H47.902L47.8333 48.205V50.379C47.8333 51.677 48.1464 52.3261 48.7727 52.3265H48.9788C49.1972 52.3207 49.4104 52.2584 49.5975 52.1457C49.8418 51.964 49.964 51.4658 49.964 50.6511V49.6768H52.4155V50.2201C52.4155 51.2171 52.3238 51.9646 52.1406 52.4625C51.6365 53.836 50.5444 54.5229 48.8643 54.5232C48.37 54.5282 47.8796 54.4357 47.421 54.2511C46.0921 53.6473 45.4276 52.485 45.4277 50.7643V44.8532C45.43 44.3426 45.5231 43.8365 45.7026 43.3586C46.3899 41.9553 47.4437 41.2535 48.8643 41.2531ZM36.8134 37.0632H39.1731V42.5442H39.2188C39.9062 41.7735 40.6011 41.3885 41.3037 41.3892C42.8464 41.3892 43.6178 42.476 43.6178 44.6496V51.5796C43.6141 51.9908 43.568 52.4004 43.4803 52.8021C43.1289 53.8131 42.5104 54.319 41.6245 54.3196H41.3037C40.5554 54.3196 39.8604 53.9723 39.2188 53.2778H39.1731V54.1836H36.8134V37.0632ZM19.4928 37.0632H27.6948V39.5092H24.9914L24.9228 39.5767V54.1835H22.2651V39.5768L22.1963 39.5092H19.4928V37.0632ZM34.087 32.6249C30.7419 32.6249 27.901 32.6703 25.5642 32.761C22.5399 32.8216 20.9057 32.9348 20.6615 33.1006C19.2104 33.5992 18.1565 34.3917 17.4996 35.4781C17.0416 36.3541 16.7896 36.9655 16.7436 37.3124C16.5145 39.7734 16.3999 42.3399 16.4 45.0121V46.3031C16.4 48.5525 16.4688 50.4924 16.6062 52.1228C16.6062 54.2967 17.2019 55.8893 18.3931 56.9007C19.3707 57.7617 20.3635 58.2599 21.3715 58.3953C25.0677 58.6068 29.3291 58.7124 34.1556 58.7121H37.8442C41.8306 58.7121 45.3435 58.6443 48.383 58.5085C50.1701 58.5085 51.4302 58.3122 52.1633 57.9196C53.6143 57.1797 54.5918 56.0853 55.0959 54.6363C55.3402 54.2281 55.5082 51.5331 55.5999 46.5513V44.7857C55.5999 42.581 55.5312 40.7467 55.3937 39.2829C55.3937 37.1089 54.8438 35.5312 53.7441 34.5497C53.0873 33.78 52.0487 33.2364 50.6282 32.919C46.9625 32.7234 42.7088 32.6254 37.8671 32.625L34.087 32.6249ZM35.708 19.8981L36.1434 19.9666C36.5559 20.1325 36.7621 20.4645 36.762 20.9627V27.5074C36.762 28.3525 36.4183 28.7753 35.7311 28.7757H35.708C35.0818 28.7757 34.7688 28.436 34.7688 27.7567V20.782C34.7688 20.2686 35.0819 19.9739 35.708 19.8981ZM41.2754 17.9963L41.2066 18.0638V28.3674C41.2007 28.8241 41.2468 29.2799 41.3442 29.726C41.5885 30.4967 42.1001 30.8817 42.8791 30.881C43.7498 30.881 44.6586 30.3679 45.6055 29.3416V30.6099L45.6742 30.6774H47.9653L48.0341 30.6099V18.0639L47.9653 17.9963H45.6742L45.6055 18.0639V27.6206C45.0556 28.2244 44.605 28.5263 44.2538 28.5263H44.1622C43.7956 28.5263 43.6123 28.1867 43.6123 27.5074V18.0639L43.5436 17.9963L41.2754 17.9963ZM35.708 17.7014C34.7612 17.7014 33.9899 17.9507 33.3942 18.4492C32.6457 18.917 32.2715 19.9134 32.2715 21.4385V26.8729C32.2645 27.3954 32.2952 27.9179 32.3632 28.4361C32.852 30.1571 33.9746 31.0175 35.7311 31.0172L36.8765 30.8811C38.4345 30.3835 39.2135 29.2967 39.2135 27.6207V20.8496C39.2188 20.4698 39.1487 20.0928 39.0072 19.7403C38.4269 18.3807 37.396 17.7011 35.9144 17.7014L35.708 17.7014ZM23.4738 13.5124L23.428 13.5581L23.8176 14.871C25.6656 20.7592 26.5897 23.8087 26.5897 24.0196V30.6099L26.6585 30.6775H29.2474L29.3161 30.6099V23.7028C29.3161 23.5667 30.3548 20.1852 32.432 13.5581H32.4091L32.3633 13.5124H29.6827L28.0331 20.351H27.8727C27.3686 18.2377 26.918 16.4789 26.521 15.0746C26.2918 14.0328 26.1467 13.5121 26.0857 13.5124L23.4738 13.5124ZM36 0.112305C55.8821 0.112305 72 16.2306 72 36.1128C72 55.995 55.8821 72.1123 36 72.1123C16.1179 72.1123 0 55.995 0 36.1128C0 16.2306 16.1177 0.112305 36 0.112305Z" fill="white"/>
</svg>
