<svg width="72" height="73" viewBox="0 0 72 73" fill="none" xmlns="http://www.w3.org/2000/svg">
<path d="M43.5382 48.3947C41.9254 50.0075 38.4697 50.5832 36.0071 50.5832C33.5374 50.5832 30.0888 50.0075 28.476 48.3947C28.0942 48.013 27.4823 48.013 27.101 48.3947C26.7193 48.7765 26.7193 49.3884 27.101 49.7697C29.657 52.3256 34.5673 52.5272 36.0071 52.5272C37.4469 52.5272 42.3501 52.3256 44.9137 49.7697C45.2878 49.3879 45.2878 48.776 44.9137 48.3947C44.5319 48.013 43.92 48.013 43.5382 48.3947Z" fill="white"/>
<path d="M31.5006 39.8636C31.5006 37.7971 29.8159 36.1123 27.7493 36.1123C25.6833 36.1123 23.998 37.7971 23.998 39.8636C23.998 41.9296 25.6833 43.6149 27.7493 43.6149C29.8159 43.6149 31.5006 41.9301 31.5006 39.8636Z" fill="white"/>
<path d="M36 0.112305C16.1208 0.112305 0 16.2331 0 36.1123C0 55.9915 16.1208 72.1123 36 72.1123C55.8792 72.1123 72 55.9915 72 36.1123C72 16.2331 55.8792 0.112305 36 0.112305ZM56.8872 40.9144C56.9663 41.433 57.0097 41.9587 57.0097 42.4915C57.0097 50.5698 47.6065 57.1149 36.0071 57.1149C24.4078 57.1149 15.0046 50.5698 15.0046 42.4915C15.0046 41.9515 15.048 41.4187 15.1271 40.9001C13.2984 40.0795 12.024 38.2437 12.024 36.1123C12.024 33.218 14.3712 30.8636 17.2727 30.8636C18.6839 30.8636 19.9583 31.4178 20.9015 32.3253C24.5446 29.6974 29.5851 28.0192 35.1936 27.8753C35.1936 27.8033 37.8144 15.3185 37.8144 15.3185C37.8649 15.074 38.0089 14.8647 38.2176 14.7285C38.4263 14.5917 38.6785 14.5483 38.9235 14.5989L47.6499 16.4561C48.2618 15.218 49.5214 14.361 50.9974 14.361C53.0711 14.361 54.7487 16.0386 54.7487 18.1123C54.7487 20.186 53.0711 21.8636 50.9974 21.8636C48.9886 21.8636 47.3615 20.2794 47.2681 18.2925L39.4557 16.6292L37.0657 27.883C42.5737 28.0769 47.5203 29.7474 51.1057 32.3396C52.0488 31.4255 53.3304 30.8636 54.7487 30.8636C57.6508 30.8636 59.9974 33.2108 59.9974 36.1123C59.9974 38.2579 58.7087 40.0937 56.8872 40.9144Z" fill="white"/>
<path d="M44.2508 36.1123C42.1843 36.1123 40.4995 37.7971 40.4995 39.8636C40.4995 41.9296 42.1843 43.6149 44.2508 43.6149C46.3168 43.6149 48.0021 41.9296 48.0021 39.8636C48.0021 37.7971 46.3173 36.1123 44.2508 36.1123Z" fill="white"/>
</svg>
