<svg width="72" height="73" viewBox="0 0 72 73" fill="none" xmlns="http://www.w3.org/2000/svg">
<g clip-path="url(#clip0_2013_2129)">
<path d="M42.8906 36.0557C42.8906 39.8613 39.8057 42.9463 36 42.9463C32.1943 42.9463 29.1094 39.8613 29.1094 36.0557C29.1094 32.25 32.1943 29.165 36 29.165C39.8057 29.165 42.8906 32.25 42.8906 36.0557Z" fill="white"/>
<path d="M52.115 23.8638C51.7838 22.9662 51.2553 22.1538 50.5687 21.4869C49.9018 20.8003 49.0899 20.2719 48.1918 19.9406C47.4634 19.6577 46.3691 19.321 44.3537 19.2292C42.1735 19.1298 41.5198 19.1084 36.0002 19.1084C30.4802 19.1084 29.8265 19.1293 27.6468 19.2287C25.6313 19.321 24.5366 19.6577 23.8087 19.9406C22.9106 20.2719 22.0981 20.8003 21.4318 21.4869C20.7452 22.1538 20.2167 22.9657 19.8849 23.8638C19.6021 24.5922 19.2653 25.687 19.1736 27.7025C19.0742 29.8821 19.0527 30.5358 19.0527 36.0559C19.0527 41.5754 19.0742 42.2291 19.1736 44.4094C19.2653 46.4248 19.6021 47.519 19.8849 48.2474C20.2167 49.1456 20.7446 49.9575 21.4313 50.6243C22.0981 51.311 22.91 51.8394 23.8082 52.1707C24.5366 52.4541 25.6313 52.7908 27.6468 52.8826C29.8265 52.982 30.4796 53.0029 35.9997 53.0029C41.5203 53.0029 42.174 52.982 44.3531 52.8826C46.3686 52.7908 47.4634 52.4541 48.1918 52.1707C49.9946 51.4752 51.4196 50.0503 52.115 48.2474C52.3979 47.519 52.7346 46.4248 52.8269 44.4094C52.9263 42.2291 52.9472 41.5754 52.9472 36.0559C52.9472 30.5358 52.9263 29.8821 52.8269 27.7025C52.7352 25.687 52.3984 24.5922 52.115 23.8638ZM36.0002 46.6703C30.1374 46.6703 25.3847 41.9182 25.3847 36.0554C25.3847 30.1925 30.1374 25.4404 36.0002 25.4404C41.8625 25.4404 46.6152 30.1925 46.6152 36.0554C46.6152 41.9182 41.8625 46.6703 36.0002 46.6703ZM47.0349 27.5014C45.6649 27.5014 44.5542 26.3907 44.5542 25.0207C44.5542 23.6507 45.6649 22.54 47.0349 22.54C48.4049 22.54 49.5156 23.6507 49.5156 25.0207C49.5151 26.3907 48.4049 27.5014 47.0349 27.5014Z" fill="white"/>
<path d="M36 0.0556641C16.1208 0.0556641 0 16.1765 0 36.0557C0 55.9349 16.1208 72.0557 36 72.0557C55.8792 72.0557 72 55.9349 72 36.0557C72 16.1765 55.8792 0.0556641 36 0.0556641ZM56.5472 44.5783C56.4472 46.7789 56.0973 48.2812 55.5864 49.5963C54.5125 52.3731 52.3174 54.5682 49.5406 55.6421C48.2261 56.153 46.7232 56.5023 44.5232 56.6028C42.3188 56.7034 41.6146 56.7275 36.0005 56.7275C30.386 56.7275 29.6823 56.7034 27.4774 56.6028C25.2773 56.5023 23.7744 56.153 22.4599 55.6421C21.08 55.123 19.8309 54.3094 18.7982 53.2575C17.7468 52.2253 16.9332 50.9756 16.4141 49.5963C15.9033 48.2818 15.5533 46.7789 15.4534 44.5789C15.3517 42.3739 15.3281 41.6697 15.3281 36.0557C15.3281 30.4417 15.3517 29.7374 15.4528 27.533C15.5528 25.3325 15.9022 23.8301 16.413 22.515C16.9321 21.1357 17.7462 19.886 18.7982 18.8538C19.8303 17.8019 21.08 16.9883 22.4594 16.4692C23.7744 15.9584 25.2768 15.609 27.4774 15.5085C29.6818 15.408 30.386 15.3838 36 15.3838C41.614 15.3838 42.3182 15.408 44.5226 15.509C46.7232 15.609 48.2256 15.9584 49.5406 16.4687C50.92 16.9878 52.1697 17.8019 53.2024 18.8538C54.2538 19.8865 55.0679 21.1357 55.5864 22.515C56.0978 23.8301 56.4472 25.3325 56.5477 27.533C56.6483 29.7374 56.6719 30.4417 56.6719 36.0557C56.6719 41.6697 56.6483 42.3739 56.5472 44.5783Z" fill="white"/>
</g>
<defs>
<clipPath id="clip0_2013_2129">
<rect width="72" height="72" fill="white" transform="translate(0 0.0556641)"/>
</clipPath>
</defs>
</svg>
