<svg width="72" height="73" viewBox="0 0 72 73" fill="none" xmlns="http://www.w3.org/2000/svg">
<path d="M36 0.112305C16.1208 0.112305 0 16.2331 0 36.1123C0 55.9915 16.1208 72.1123 36 72.1123C55.8792 72.1123 72 55.9915 72 36.1123C72 16.2331 55.8792 0.112305 36 0.112305ZM54.0605 27.6569V32.5314C51.762 32.5323 49.5287 32.0819 47.4224 31.1932C46.068 30.6215 44.8062 29.8847 43.6521 28.9944L43.6867 43.9981C43.6722 47.3767 42.3356 50.551 39.9164 52.942C37.9477 54.8883 35.453 56.1259 32.749 56.5266C32.1137 56.6206 31.4671 56.6689 30.8132 56.6689C27.9187 56.6689 25.1708 55.7312 22.9229 54.0012C22.4999 53.6755 22.0953 53.3224 21.7101 52.942C19.0883 50.3507 17.7363 46.8388 17.964 43.1441C18.1377 40.3318 19.2637 37.6496 21.1407 35.5474C23.6242 32.7656 27.0984 31.2215 30.8132 31.2215C31.4671 31.2215 32.1137 31.2706 32.749 31.3647V33.1669V38.1805C32.1466 37.9818 31.5032 37.8725 30.8333 37.8725C27.4395 37.8725 24.6938 40.6414 24.7445 44.0378C24.7767 46.2109 25.9637 48.1104 27.7145 49.1575C28.5373 49.6497 29.4839 49.9546 30.494 50.01C31.2854 50.0534 32.0453 49.9432 32.749 49.7109C35.1738 48.9099 36.9231 46.6323 36.9231 43.9461L36.9311 33.8989V15.5557H43.644C43.6504 16.2209 43.7179 16.8699 43.8434 17.4988C44.35 20.0442 45.7848 22.2526 47.7817 23.7581C49.5229 25.0714 51.6911 25.8499 54.0411 25.8499C54.0411 25.8499 54.062 25.8499 54.0603 25.8484L54.0605 27.6569Z" fill="white"/>
</svg>
